<?xml version="1.0" encoding="UTF-8"?>
<svg id="Layer_2" data-name="Layer 2" xmlns="http://www.w3.org/2000/svg" viewBox="0 0 358.36 40.38">
  <defs>
    <style>
      .cls-1 {
        fill: #fff;
      }
    </style>
  </defs>
  <g id="Layer_1-2" data-name="Layer 1">
    <g>
      <g>
        <path class="cls-1" d="M22.43.56v1.12H5.61v16.83h14.58v1.12H5.61v20.19H0V.56h22.43Z"/>
        <path class="cls-1" d="M50.48,20.19c0-2.8.48-5.43,1.43-7.88.95-2.45,2.26-4.58,3.93-6.39,1.66-1.81,3.6-3.25,5.8-4.32,2.21-1.07,4.56-1.6,7.07-1.6s4.86.53,7.07,1.6c2.21,1.07,4.14,2.51,5.81,4.32,1.66,1.81,2.97,3.95,3.93,6.39.95,2.45,1.43,5.08,1.43,7.88s-.48,5.43-1.43,7.88c-.95,2.45-2.26,4.58-3.93,6.39-1.66,1.81-3.6,3.25-5.81,4.32-2.21,1.07-4.56,1.6-7.07,1.6s-4.86-.53-7.07-1.6c-2.21-1.07-4.14-2.5-5.8-4.32-1.66-1.81-2.97-3.94-3.93-6.39-.95-2.45-1.43-5.08-1.43-7.88ZM68.7,1.12c-2.17,0-3.97.24-5.41.73-1.44.49-2.61,1.16-3.51,2.02-.9.86-1.57,1.88-2.02,3.06s-.76,2.47-.93,3.87c-.17,1.4-.24,2.89-.22,4.46.02,1.57.03,3.16.03,4.77s0,3.26-.03,4.85c-.02,1.59.06,3.09.22,4.52.17,1.42.46,2.73.87,3.93.41,1.2,1.07,2.23,1.96,3.11.9.88,2.08,1.57,3.53,2.08,1.46.5,3.29.76,5.5.76,3.29,0,5.78-.54,7.46-1.63,1.68-1.08,2.86-2.52,3.53-4.32.67-1.79,1.02-3.84,1.04-6.14.02-2.3.03-4.68.03-7.15,0-1.61,0-3.2.03-4.77.02-1.57-.06-3.06-.22-4.46-.17-1.4-.48-2.69-.93-3.87s-1.12-2.2-2.02-3.06c-.9-.86-2.07-1.53-3.51-2.02-1.44-.49-3.24-.73-5.41-.73Z"/>
        <path class="cls-1" d="M114.97,39.82V.56h14.02c1.31,0,2.54.25,3.7.76,1.16.5,2.17,1.19,3.03,2.05.86.86,1.54,1.87,2.05,3.03.5,1.16.76,2.39.76,3.7s-.25,2.54-.76,3.7c-.5,1.16-1.19,2.17-2.05,3.03-.86.86-1.87,1.54-3.03,2.05-1.16.5-2.39.76-3.7.76h-8.41v20.19h-5.61ZM120.58,1.68v16.83h8.41c.93,0,1.66-.26,2.19-.79.52-.52.92-1.2,1.18-2.02.26-.82.42-1.75.48-2.78.06-1.03.08-2.05.08-3.06s-.04-2.01-.11-3c-.08-.99-.24-1.87-.5-2.64-.26-.77-.65-1.38-1.18-1.85-.52-.47-1.23-.7-2.13-.7h-8.41Z"/>
        <path class="cls-1" d="M166.57,39.82V.56h14.02c1.31,0,2.54.25,3.7.76,1.16.5,2.17,1.19,3.03,2.05.86.86,1.54,1.87,2.05,3.03.5,1.16.76,2.39.76,3.7s-.25,2.54-.76,3.7c-.5,1.16-1.19,2.17-2.05,3.03-.86.86-1.87,1.54-3.03,2.05-1.16.5-2.39.76-3.7.76h-8.41v20.19h-5.61ZM172.18,1.68v16.83h8.41c.93,0,1.66-.26,2.19-.79.52-.52.92-1.2,1.18-2.02.26-.82.42-1.75.48-2.78.06-1.03.08-2.05.08-3.06s-.04-2.01-.11-3c-.08-.99-.24-1.87-.5-2.64-.26-.77-.65-1.38-1.18-1.85-.52-.47-1.23-.7-2.13-.7h-8.41Z"/>
        <path class="cls-1" d="M231.96.56h1.57l13.85,39.26h-5.95l-3.93-11.16h-14.25l-3.87,11.16h-1.23L231.96.56ZM223.72,27.43h13.35l-6.67-19.01-6.67,19.01Z"/>
      </g>
      <g>
        <path class="cls-1" d="M255.34,12.04l1.16,1.12c-.47.37-.98.65-1.55.86-.57.2-1.16.31-1.78.31-.96,0-1.86-.24-2.68-.72-.82-.48-1.47-1.13-1.95-1.95s-.72-1.72-.72-2.69.24-1.86.72-2.68c.48-.82,1.13-1.47,1.95-1.95.82-.48,1.71-.72,2.68-.72.6,0,1.17.1,1.73.29.56.19,1.06.46,1.52.81l-1.09,1.16c-.65-.46-1.37-.69-2.16-.69-.68,0-1.31.17-1.89.51-.58.34-1.04.8-1.38,1.38-.34.58-.51,1.21-.51,1.89s.17,1.32.51,1.89c.34.58.8,1.03,1.38,1.37.58.34,1.21.51,1.89.51.8,0,1.52-.23,2.16-.69Z"/>
        <path class="cls-1" d="M268.12,4.32c.83.48,1.48,1.13,1.96,1.95.48.82.72,1.71.72,2.68s-.24,1.87-.72,2.69-1.14,1.47-1.96,1.95c-.83.48-1.72.72-2.69.72s-1.86-.24-2.68-.72c-.82-.48-1.47-1.13-1.95-1.95s-.72-1.72-.72-2.69.24-1.86.72-2.68c.48-.82,1.13-1.47,1.95-1.95.82-.48,1.71-.72,2.68-.72s1.86.24,2.69.72ZM267.33,12.22c.58-.34,1.03-.8,1.37-1.37.34-.58.51-1.21.51-1.89s-.17-1.31-.51-1.89c-.34-.58-.8-1.04-1.37-1.38-.58-.34-1.21-.51-1.89-.51s-1.31.17-1.89.51c-.58.34-1.04.8-1.38,1.38-.34.58-.51,1.21-.51,1.89s.17,1.32.51,1.89c.34.58.8,1.03,1.38,1.37.58.34,1.21.51,1.89.51s1.32-.17,1.89-.51Z"/>
        <path class="cls-1" d="M280.37,14.19h-4.94V3.78h1.58v8.82h3.36v1.6Z"/>
        <path class="cls-1" d="M290.23,14.19h-4.94V3.78h1.58v8.82h3.36v1.6Z"/>
        <path class="cls-1" d="M300.45,5.36h-3.71v2.82h3.18v1.6h-3.18v2.82h3.71v1.6h-5.3V3.78h5.3v1.58Z"/>
        <path class="cls-1" d="M312.15,12.04l1.16,1.12c-.47.37-.98.65-1.55.86-.57.2-1.16.31-1.78.31-.96,0-1.86-.24-2.68-.72-.82-.48-1.47-1.13-1.95-1.95s-.72-1.72-.72-2.69.24-1.86.72-2.68c.48-.82,1.13-1.47,1.95-1.95.82-.48,1.71-.72,2.68-.72.6,0,1.17.1,1.73.29.56.19,1.06.46,1.52.81l-1.09,1.16c-.65-.46-1.37-.69-2.16-.69-.68,0-1.31.17-1.89.51-.58.34-1.04.8-1.38,1.38-.34.58-.51,1.21-.51,1.89s.17,1.32.51,1.89c.34.58.8,1.03,1.38,1.37.58.34,1.21.51,1.89.51.8,0,1.52-.23,2.16-.69Z"/>
        <path class="cls-1" d="M324.27,5.36h-2.22v8.83h-1.58V5.36h-2.24v-1.58h6.04v1.58Z"/>
        <path class="cls-1" d="M330.48,14.19h-1.58V3.79h1.58v10.4Z"/>
        <path class="cls-1" d="M343.14,4.32c.83.48,1.48,1.13,1.96,1.95.48.82.72,1.71.72,2.68s-.24,1.87-.72,2.69-1.14,1.47-1.96,1.95c-.83.48-1.72.72-2.69.72s-1.86-.24-2.68-.72c-.82-.48-1.47-1.13-1.95-1.95s-.72-1.72-.72-2.69.24-1.86.72-2.68c.48-.82,1.13-1.47,1.95-1.95.82-.48,1.71-.72,2.68-.72s1.86.24,2.69.72ZM342.35,12.22c.58-.34,1.03-.8,1.37-1.37.34-.58.51-1.21.51-1.89s-.17-1.31-.51-1.89c-.34-.58-.8-1.04-1.37-1.38-.58-.34-1.21-.51-1.89-.51s-1.31.17-1.89.51c-.58.34-1.04.8-1.38,1.38-.34.58-.51,1.21-.51,1.89s.17,1.32.51,1.89c.34.58.8,1.03,1.38,1.37.58.34,1.21.51,1.89.51s1.32-.17,1.89-.51Z"/>
        <path class="cls-1" d="M358.36,14.19h-1.73l-4.73-7.83v7.83h-1.6V3.79h1.91l4.55,7.55V3.79h1.6v10.4Z"/>
      </g>
    </g>
  </g>
</svg>